<?xml version="1.0" standalone="no"?>
<!DOCTYPE svg PUBLIC "-//W3C//DTD SVG 20010904//EN"
 "http://www.w3.org/TR/2001/REC-SVG-20010904/DTD/svg10.dtd">
<svg version="1.0" xmlns="http://www.w3.org/2000/svg"
 width="100%" height="100%" viewBox="0 0 1648.000000 397.000000"
 preserveAspectRatio="xMidYMid meet">

<g transform="translate(0.000000,397.000000) scale(0.100000,-0.100000)"
fill="#000000" stroke="none">
<path d="M1265 3905 c-211 -34 -438 -125 -617 -246 -120 -82 -305 -266 -385
-384 -113 -168 -190 -347 -235 -551 -31 -144 -32 -445 0 -587 69 -314 212
-570 439 -787 202 -194 437 -317 724 -382 139 -31 445 -33 579 -5 308 67 557
199 770 410 285 282 440 653 440 1054 0 421 -155 783 -462 1079 -205 198 -444
324 -726 385 -129 27 -399 35 -527 14z m215 -885 l0 -560 -561 0 -562 0 6 83
c25 317 211 641 478 830 171 121 403 203 582 206 l57 1 0 -560z m221 545 c431
-75 790 -403 904 -826 14 -52 28 -136 32 -186 l6 -93 -551 0 -552 0 0 560 0
560 39 0 c21 0 76 -7 122 -15z m-221 -1715 l0 -550 -49 0 c-231 0 -533 133
-724 318 -187 182 -320 456 -343 706 l-7 76 562 0 561 0 0 -550z m1157 468
c-4 -46 -18 -125 -32 -177 -114 -422 -473 -751 -904 -826 -46 -8 -101 -15
-122 -15 l-39 0 0 550 0 550 551 0 552 0 -6 -82z"/>
<path d="M5584 3870 c-18 -7 -20 -15 -17 -81 1 -41 5 -155 7 -254 3 -99 8
-241 11 -315 12 -272 11 -305 -11 -308 -10 -2 -23 -8 -28 -12 -5 -5 -10 -75
-13 -157 -10 -412 -13 -523 -12 -578 1 -33 1 -67 0 -75 -1 -8 -1 -24 -1 -36
-1 -19 -4 -20 -58 -13 -86 11 -123 19 -146 32 -11 6 -24 10 -28 9 -5 -1 -8 3
-8 9 0 5 -4 8 -9 5 -25 -16 -159 157 -176 227 -4 15 -10 27 -14 27 -4 0 -50
-36 -102 -81 -62 -53 -93 -86 -91 -97 5 -24 70 -127 93 -148 10 -9 19 -21 19
-26 0 -11 80 -88 91 -88 5 0 13 -9 19 -20 6 -11 15 -18 19 -15 5 3 12 -2 15
-11 3 -8 10 -12 16 -9 5 3 10 3 10 -2 0 -9 91 -49 103 -45 4 1 7 -2 7 -6 0 -4
8 -8 18 -9 9 -1 31 -4 47 -7 17 -4 59 -8 95 -10 36 -2 66 -8 68 -15 2 -6 -8
-11 -25 -11 -37 0 -74 -11 -68 -19 2 -4 -9 -26 -24 -50 -26 -39 -28 -49 -25
-125 1 -45 4 -88 6 -96 4 -18 -118 -100 -149 -100 -12 0 -24 -4 -28 -9 -3 -5
-29 -17 -58 -26 -62 -21 -73 -30 -81 -71 -5 -22 -2 -35 9 -44 8 -7 15 -18 15
-26 0 -7 10 -20 21 -28 21 -14 28 -14 67 1 9 3 19 7 22 8 3 0 40 18 82 39 83
40 123 43 159 11 10 -10 25 -15 35 -11 16 6 16 -8 1 -59 -2 -5 -18 -55 -35
-110 -17 -55 -31 -103 -32 -108 0 -4 -6 -23 -14 -42 -8 -19 -13 -35 -10 -35 3
0 0 -8 -5 -18 -6 -11 -12 -30 -14 -43 -6 -27 -61 -205 -83 -261 -7 -21 -12
-38 -9 -38 3 0 -2 -14 -10 -30 -9 -17 -13 -35 -10 -40 3 -6 1 -10 -6 -10 -7 0
-10 -3 -6 -6 3 -4 0 -22 -8 -40 -8 -19 -12 -34 -9 -34 2 0 -2 -15 -9 -32 -19
-48 -16 -73 9 -74 12 -1 27 -5 34 -9 13 -8 46 -15 83 -18 9 -1 17 -4 17 -7 0
-4 6 -7 13 -7 6 0 26 -3 42 -7 17 -3 60 -9 96 -12 l66 -7 8 39 c4 22 9 53 11
69 3 41 15 134 20 168 15 99 33 239 39 300 1 16 -6 44 -15 62 -20 39 -19 63
14 240 2 11 7 42 11 68 6 39 13 51 36 63 46 24 99 74 120 116 25 49 25 12 -6
1233 -2 88 -5 210 -5 272 -1 94 -4 114 -20 128 -14 13 -18 31 -18 83 0 103
-14 257 -24 260 -5 2 -22 15 -39 30 -50 41 -57 71 -62 256 l-2 98 35 27 c49
36 78 52 109 57 40 7 55 27 42 53 -11 19 -18 20 -101 16 -96 -5 -94 -6 -90 46
1 30 -15 40 -46 29z m-92 -2202 c16 -12 21 -45 19 -115 -1 -39 -17 -42 -55
-12 -15 12 -30 19 -33 16 -10 -11 32 -56 58 -62 23 -5 26 -11 27 -50 l2 -44
-49 22 c-27 12 -54 31 -59 42 -14 31 -9 180 7 199 16 19 61 21 83 4z"/>
<path d="M9195 3559 c-191 -25 -404 -106 -544 -206 -94 -67 -220 -198 -285
-296 -164 -246 -236 -537 -223 -897 14 -383 126 -673 348 -905 177 -184 363
-285 629 -342 119 -25 437 -25 564 0 197 40 365 121 478 231 31 31 59 52 61
48 2 -4 23 -65 47 -135 l42 -128 121 3 122 3 0 660 0 660 -507 3 -508 2 0
-160 0 -160 340 0 340 0 0 -197 0 -196 -93 -91 c-99 -98 -177 -149 -297 -195
-134 -52 -225 -66 -430 -66 -162 0 -195 3 -263 23 -318 91 -531 334 -609 694
-19 89 -22 133 -22 318 0 186 3 229 23 319 46 213 112 342 246 477 173 175
348 244 621 244 259 0 455 -65 596 -199 79 -74 129 -163 148 -265 l12 -66 179
0 c99 0 179 2 179 4 0 23 -33 164 -49 210 -102 291 -390 511 -771 587 -112 23
-388 33 -495 18z"/>
<path d="M3896 2835 c-119 -30 -245 -104 -353 -208 l-43 -41 0 112 0 112 -170
0 -170 0 0 -940 0 -940 168 2 167 3 3 676 2 676 88 84 c98 96 177 147 272 179
55 19 81 21 170 18 89 -3 113 -8 155 -30 74 -38 110 -84 141 -179 17 -50 19
-110 22 -742 l3 -687 167 2 167 3 3 630 c3 661 -2 771 -40 894 -29 95 -60 150
-118 214 -110 120 -230 168 -440 173 -97 3 -152 -1 -194 -11z"/>
<path d="M13779 2835 c-118 -30 -213 -83 -331 -187 l-68 -60 0 111 0 111 -170
0 -170 0 0 -940 0 -940 168 2 167 3 3 676 2 676 88 84 c98 96 177 147 272 179
55 19 81 21 170 18 89 -3 113 -8 156 -31 67 -34 109 -86 137 -167 21 -64 22
-74 25 -753 l3 -687 167 2 167 3 3 635 c3 666 -1 764 -40 890 -30 95 -64 157
-120 216 -112 119 -230 165 -438 170 -94 3 -152 -1 -191 -11z"/>
<path d="M15435 2830 c-234 -49 -421 -211 -464 -401 -25 -105 -9 -260 35 -354
60 -130 223 -213 609 -315 461 -120 519 -155 519 -310 0 -133 -91 -234 -248
-276 -69 -19 -283 -18 -364 1 -160 38 -248 128 -268 273 l-7 52 -166 -2 -166
-3 3 -40 c22 -264 183 -452 452 -524 219 -59 500 -53 693 14 97 34 171 80 247
155 109 109 160 231 160 387 0 217 -72 339 -254 427 -118 57 -205 86 -439 147
-343 89 -422 121 -461 188 -25 43 -27 142 -3 187 36 70 135 126 257 145 89 14
233 6 307 -16 94 -28 176 -108 189 -184 3 -20 7 -42 9 -48 3 -10 46 -13 170
-13 l165 0 0 33 c0 51 -27 153 -55 208 -74 144 -229 237 -462 275 -126 20
-346 17 -458 -6z"/>
<path d="M6239 2733 c16 -43 174 -460 351 -928 177 -467 322 -860 322 -871 1
-27 -60 -168 -104 -241 -46 -77 -115 -146 -178 -178 -50 -25 -60 -27 -144 -22
-50 3 -101 8 -113 12 l-23 7 0 -155 0 -156 58 -12 c31 -6 98 -12 147 -12 157
-1 257 42 361 157 75 82 122 164 194 332 61 143 810 2117 810 2135 0 5 -75 9
-179 9 l-178 0 -242 -717 c-134 -395 -246 -721 -250 -725 -3 -4 -117 319 -251
717 l-245 725 -182 0 -182 0 28 -77z"/>
<path d="M11023 2108 c4 -787 2 -765 77 -924 64 -133 181 -227 335 -268 86
-23 246 -31 330 -17 137 24 291 108 395 215 l45 47 5 -113 5 -113 165 0 165 0
3 938 2 937 -170 0 -170 0 0 -676 0 -676 -77 -79 c-86 -89 -172 -149 -259
-181 -48 -18 -81 -22 -175 -23 -109 0 -119 2 -174 30 -69 36 -107 80 -137 160
-23 60 -23 62 -26 753 l-3 692 -170 0 -170 0 4 -702z"/>
</g>
</svg>
